<svg id="svg45453_copy" data-name="svg45453 copy" xmlns="http://www.w3.org/2000/svg" viewBox="0 0 592.03 590.53"><defs><style>.cls-1{fill:#db212e;}</style></defs><path id="path44564" class="cls-1" d="M369.92,133.9A178.47,178.47,0,0,1,422,171l96.38-35.08A273.9,273.9,0,0,0,410.76,46.35C273-17.91,108.57,41.92,44.33,179.7a273.71,273.71,0,0,0-24.9,137.8l96.4-35.08a178.19,178.19,0,0,1,16-61.89C173.62,131,280.4,92.16,369.92,133.9"/><path id="path44572" class="cls-1" d="M472.73,310a176.66,176.66,0,0,1-16.19,61.89c-41.73,89.53-148.53,128.38-238,86.64a177.37,177.37,0,0,1-52.18-37l-96.19,35a273.29,273.29,0,0,0,107.55,89.59c137.79,64.24,302.16,4.42,366.42-133.38A272.94,272.94,0,0,0,568.92,275l-96.19,35Z"/><path id="path44572-2" data-name="path44572" class="cls-1" d="M243.33,292.39c77,31.07,124.14,45.35,135.39,99.14,8.22,81.58-64.36,99.7-152.07,71.43-20.08-9.37-45.74-26.42-60.33-41.41l-96.18,35C96.78,494,144.24,530.24,188.82,551,326.62,615.28,459,506.12,457.6,433.87c7.3-88.39-51.74-138.67-93.61-153.4L302.92,254Z"/><path id="path44572-3" data-name="path44572" class="cls-1" d="M337.88,303.59c-77-31.07-124.13-45.35-135.39-99.14-9.76-90.87,118.21-96.06,158.3-75.78C380.87,138.05,407.4,156,422,171l96.38-35.08c-26.64-37.47-92.94-50.3-137.52-71.1-137.8-64.24-258.6,25-257.25,97.3-7.3,88.39,51.74,138.67,93.61,153.4L278.3,342Z"/></svg>